# xmcd CD database file
#
# Track frame offsets:
#	150
#	24816
#	52679
#	84329
#	114892
#	142455
#	181634
#	194919
#
# Disc length: 3199 seconds
#
# Revision: 0
# Processed by: cddbd v1.5.2PL0 Copyright (c) Steve Scherf et al.
# Submitted via: CDex 2.00
#
DISCID=5f0c7d08
DTITLE=Canal Street Band - Live Concert
DYEAR=2018
DGENRE=Jazz
TTITLE0=Dans Les Rues D'Antibes
TTITLE1=Georgia Cabin
TTITLE2=Chinatown My Chinatown
TTITLE3=Gabrielle/Valse De l'Adieu
TTITLE4=I Can't Believe That You're In Love With Me
TTITLE5=I Surrender Dear
TTITLE6=Pilgrim's Chorus
TTITLE7=Just a Little While to Stay Here
EXTD=YEAR: 2018
EXTT0=
EXTT1=
EXTT2=
EXTT3=
EXTT4=
EXTT5=
EXTT6=
EXTT7=
PLAYORDER=
